<svg version="1.1" viewBox="0.0 0.0 1546.4278215223096 552.0288713910761" fill="none" stroke="none" stroke-linecap="square" stroke-miterlimit="10" xmlns:xlink="http://www.w3.org/1999/xlink" xmlns="http://www.w3.org/2000/svg"><clipPath id="p.0"><path d="m0 0l1546.4279 0l0 552.0289l-1546.4279 0l0 -552.0289z" clip-rule="nonzero"/></clipPath><g clip-path="url(#p.0)"><path fill="#000000" fill-opacity="0.0" d="m0 0l1546.4279 0l0 552.0289l-1546.4279 0z" fill-rule="evenodd"/><path fill="#000000" fill-opacity="0.0" d="m0.19419265 -0.30183727l1546.4252 0l0 550.7716l-1546.4252 0z" fill-rule="evenodd"/><g filter="url(#shadowFilter-p.1)"><use xlink:href="#p.1" transform="matrix(1.0 0.0 0.0 1.0 0.0 2.0)"/></g><defs><filter id="shadowFilter-p.1" filterUnits="userSpaceOnUse"><feGaussianBlur in="SourceAlpha" stdDeviation="2.0" result="blur"/><feComponentTransfer in="blur" color-interpolation-filters="sRGB"><feFuncR type="linear" slope="0" intercept="0.0"/><feFuncG type="linear" slope="0" intercept="0.0"/><feFuncB type="linear" slope="0" intercept="0.0"/><feFuncA type="linear" slope="0.5" intercept="0"/></feComponentTransfer></filter></defs><g id="p.1"><path fill="#ffffff" d="m27.664042 275.08398l0 0c0 -137.85374 111.97112 -249.6063 250.0945 -249.6063l0 0c66.32916 0 129.94168 26.297731 176.8435 73.107994c46.901794 46.810265 73.25098 110.29859 73.25098 176.49829l0 0c0 137.85376 -111.97113 249.60632 -250.09448 249.60632l0 0c-138.12338 0 -250.0945 -111.75256 -250.0945 -249.60632z" fill-rule="evenodd"/></g><path fill="#000000" fill-opacity="0.0" d="m117.33202 178.8937l320.85037 0l0 192.37796l-320.85037 0z" fill-rule="evenodd"/><path fill="#f44336" d="m170.76952 267.21243q6.71875 -11.35936 12.796875 -22.718735q6.078125 -11.359375 11.203125 -22.875l27.515625 0q-9.109375 17.921875 -18.875 34.718735q-9.765625 16.796875 -20.640625 33.75l0 42.40625l-24.953125 0l0 -42.078125q-10.890625 -16.96875 -20.734375 -33.921875q-9.828117 -16.95311 -18.953117 -34.874985l28.968742 0q5.109375 11.515625 11.03125 22.875q5.921875 11.359375 12.640625 22.718735zm105.760056 0q6.71875 -11.35936 12.796875 -22.718735q6.078125 -11.359375 11.203125 -22.875l27.515625 0q-9.109375 17.921875 -18.875 34.718735q-9.765625 16.796875 -20.640625 33.75l0 42.40625l-24.953125 0l0 -42.078125q-10.890625 -16.96875 -20.734375 -33.921875q-9.828125 -16.95311 -18.953125 -34.874985l28.96875 0q5.109375 11.515625 11.03125 22.875q5.921875 11.359375 12.640625 22.718735zm115.681946 67.515625q-27.046875 0 -41.203125 -15.03125q-14.15625 -15.046875 -14.15625 -42.71875q0 -13.765625 4.3125 -24.562485q4.328125 -10.796875 11.84375 -18.234375q7.53125 -7.453125 17.921875 -11.28125q10.40625 -3.84375 22.5625 -3.84375q7.046875 0 12.796875 1.046875q5.765625 1.03125 10.078125 2.390625q4.328125 1.359375 7.203125 2.796875q2.875 1.4375 4.15625 2.25l-7.1875 20.15625q-5.125 -2.71875 -11.9375 -4.640625q-6.796875 -1.921875 -15.4375 -1.921875q-5.75 0 -11.28125 1.921875q-5.515625 1.921875 -9.75 6.15625q-4.234375 4.234375 -6.796875 10.968735q-2.5625 6.71875 -2.5625 16.3125q0 7.6875 1.671875 14.328125q1.6875 6.625 5.4375 11.4375q3.765625 4.796875 9.84375 7.59375q6.078125 2.796875 14.71875 2.796875q5.453125 0 9.765625 -0.640625q4.328125 -0.640625 7.6875 -1.515625q3.359375 -0.875 5.90625 -2.0q2.5625 -1.125 4.640625 -2.078125l6.890625 20.0q-5.28125 3.203125 -14.890625 5.765625q-9.59375 2.546875 -22.234375 2.546875z" fill-rule="nonzero"/><g filter="url(#shadowFilter-p.2)"><use xlink:href="#p.2" transform="matrix(1.0 0.0 0.0 1.0 0.0 2.0)"/></g><defs><filter id="shadowFilter-p.2" filterUnits="userSpaceOnUse"><feGaussianBlur in="SourceAlpha" stdDeviation="2.0" result="blur"/><feComponentTransfer in="blur" color-interpolation-filters="sRGB"><feFuncR type="linear" slope="0" intercept="0.0"/><feFuncG type="linear" slope="0" intercept="0.0"/><feFuncB type="linear" slope="0" intercept="0.0"/><feFuncA type="linear" slope="0.5" intercept="0"/></feComponentTransfer></filter></defs><g id="p.2"><path fill="#000000" fill-opacity="0.0" d="m546.4908 108.96326l988.9764 0l0 243.02362l-988.9764 0z" fill-rule="evenodd"/><path fill="#ffffff" d="m576.2564 334.31638q-0.71875 -1.4375 -4.09375 -3.828125q-3.359375 -2.40625 -3.359375 -2.890625q0 -0.953125 -1.078125 -2.75q-1.078125 -1.796875 -2.03125 -3.25q-1.921875 -1.921875 2.640625 -12.46875q4.5625 -10.5625 12.234375 -24.96875q1.4375 -1.4375 3.71875 -5.03125q2.28125 -3.609375 3.0 -4.078125q0 -0.96875 0.71875 -1.796875q0.71875 -0.84375 1.6875 -0.84375l1.921875 -3.84375q0.953125 -2.15625 9.34375 -10.3125q8.40625 -8.171875 13.21875 -11.046875q4.546875 -3.125 9.828125 -3.125q5.765625 0 9.84375 3.359375l6.484375 5.515625q7.203125 6.0 8.15625 6.96875l8.875 7.921875l-4.078125 12.0q-2.15625 6.46875 -2.15625 12.234375q0 9.125 5.046875 17.046875q1.1875 2.640625 3.21875 4.078125q2.046875 1.4375 5.40625 1.921875q5.28125 0.953125 5.28125 5.28125q0 5.265625 -1.921875 7.90625q-1.90625 2.640625 -4.546875 3.359375q-3.84375 0.484375 -5.28125 0.484375q-6.96875 0 -12.734375 -3.59375q-5.75 -3.609375 -10.0625 -12.25q-0.96875 -1.4375 -2.53125 -5.265625q-1.5625 -3.84375 -1.796875 -5.28125q-1.671875 2.390625 -5.515625 6.234375q-24.71875 24.953125 -40.078125 24.953125q-5.28125 0 -9.359375 -2.640625zm13.1875 -19.90625q3.84375 0.46875 14.890625 -8.640625q1.203125 -0.96875 2.640625 -2.28125q1.4375 -1.328125 3.109375 -2.765625q6.71875 -5.515625 10.4375 -9.234375q3.734375 -3.71875 7.5625 -9.0l5.28125 -8.640625q-2.390625 -5.28125 -4.3125 -7.078125q-1.921875 -1.8125 -3.84375 -1.8125q-4.796875 0 -12.0 8.53125q-7.203125 8.515625 -17.28125 25.796875q-2.640625 4.3125 -4.328125 9.0q-1.671875 4.671875 -2.15625 6.125zm146.39941 26.390625q-1.671875 0.96875 -4.4375 -0.71875q-2.75 -1.671875 -5.390625 -5.03125q-1.921875 -3.125 -2.640625 -6.125q-0.71875 -3.0 -0.71875 -8.765625l0.234375 -5.515625q0 -2.15625 -0.71875 -2.15625q-0.71875 0 -3.25 2.28125q-2.515625 2.28125 -6.34375 5.875q-7.203125 6.953125 -12.125 10.6875q-4.921875 3.71875 -8.046875 3.46875q-2.640625 0 -7.4375 -4.671875q-4.796875 -4.6875 -6.484375 -9.0q-0.71875 -2.890625 -0.71875 -6.484375q0 -11.046875 4.796875 -26.875q4.8125 -15.84375 11.28125 -27.484375q6.484375 -11.640625 10.8125 -11.15625q3.828125 0.46875 6.828125 3.71875q3.0 3.234375 4.921875 7.796875q0.71875 1.4375 0.71875 2.40625q0 1.671875 -1.90625 3.359375q-3.609375 4.796875 -9.125 15.71875q-5.515625 10.921875 -8.890625 19.921875q-3.359375 9.0 -1.671875 9.0q3.359375 0 6.109375 -1.6875q2.765625 -1.6875 7.328125 -6.0q8.640625 -8.640625 16.796875 -22.078125q10.078125 -16.078125 11.046875 -18.71875l2.640625 -4.796875q2.390625 -4.8125 3.59375 -6.359375q1.203125 -1.5625 2.890625 -2.046875l5.515625 0q1.4375 0.234375 3.359375 2.15625q2.15625 0.96875 4.078125 2.65625q1.921875 1.671875 1.921875 2.875l-3.84375 8.875l-2.15625 5.03125q-6.484375 14.40625 -9.84375 22.9375q-3.359375 8.515625 -5.03125 17.625q-0.25 1.203125 -0.25 4.078125q0 7.203125 1.4375 10.078125q2.171875 4.328125 4.328125 6.25q1.921875 1.4375 0 3.484375q-1.921875 2.03125 -5.40625 3.71875q-3.46875 1.671875 -4.203125 1.671875zm47.534363 -1.203125q-3.84375 -0.71875 -8.65625 -6.109375q-4.796875 -5.40625 -5.984375 -9.25q0 -0.46875 -0.484375 -1.0625q-0.484375 -0.609375 -0.71875 -0.859375q-0.96875 -0.71875 -0.96875 -7.90625q0 -5.765625 0.59375 -12.0q0.609375 -6.25 1.578125 -10.09375l4.3125 -12.71875l3.359375 -9.59375l6.484375 -13.921875l-9.609375 -2.640625q-1.671875 -0.234375 -2.75 -1.671875q-1.078125 -1.453125 -1.078125 -2.640625q0 -1.921875 2.03125 -5.515625q2.046875 -3.609375 3.25 -3.609375q0.71875 0.234375 3.828125 0.234375q7.203125 0 10.8125 -0.71875q2.390625 -0.953125 3.359375 -3.84375q1.1875 -2.625 2.390625 -4.421875q1.203125 -1.8125 2.40625 -3.96875q0.71875 -1.4375 2.28125 -4.4375q1.5625 -3.0 3.953125 -6.84375q0.484375 -0.71875 2.15625 -3.46875q1.6875 -2.765625 4.09375 -4.6875q1.4375 -1.203125 3.828125 -2.046875q2.40625 -0.84375 4.796875 -0.84375q4.328125 0 6.96875 2.40625q2.15625 3.359375 2.15625 5.046875q0 1.90625 -1.921875 5.03125q-1.4375 2.875 -4.796875 7.6875q-2.875 4.3125 -4.3125 6.953125q-2.40625 3.125 -2.40625 4.796875q0 1.6875 3.125 1.6875q3.359375 0 11.28125 -1.4375q1.1875 -0.25 3.359375 -0.25q5.75 0 8.140625 3.359375q2.40625 3.359375 2.40625 8.40625q0 3.359375 -2.28125 4.078125q-2.265625 0.71875 -10.1875 0.71875q-7.6875 1.203125 -15.84375 1.203125q-1.4375 0 -3.25 0.125q-1.796875 0.109375 -3.703125 0.59375q-1.921875 0.484375 -2.765625 1.453125q-0.84375 0.953125 -1.796875 3.109375q-0.71875 0.71875 -3.359375 5.515625q-3.359375 6.96875 -4.328125 8.40625q-6.234375 18.234375 -9.59375 37.671875q-0.25 1.4375 -0.25 3.609375q0 3.109375 2.046875 4.4375q2.046875 1.3125 8.046875 1.3125q6.71875 0 12.71875 -1.671875q7.1875 -3.125 10.796875 -5.28125q2.15625 -1.203125 3.953125 -2.28125q1.796875 -1.078125 2.53125 -1.5625q0.953125 -1.921875 3.234375 0.484375q2.28125 2.390625 3.484375 5.515625q0 4.328125 -1.6875 7.8125q-1.671875 3.46875 -8.390625 7.3125q-7.6875 4.796875 -15.84375 6.953125q-8.15625 2.15625 -15.359375 2.15625q-4.078125 0 -7.4375 -0.71875zm85.90875 1.921875q-2.875 0.25 -4.671875 -0.359375q-1.796875 -0.59375 -5.15625 -2.75q-5.28125 -4.09375 -8.765625 -10.09375q-3.484375 -6.0 -3.234375 -10.078125q0.234375 -0.71875 0.234375 -2.15625q0 -1.4375 -0.25 -2.28125q-0.234375 -0.84375 -0.234375 -1.078125q-0.953125 -0.71875 -1.078125 -1.078125q-0.125 -0.359375 0.234375 -0.84375q0.359375 -0.484375 0.609375 -0.953125q0.953125 -0.25 0.953125 -0.96875q0 -0.71875 -0.46875 -1.671875q-0.734375 -1.921875 0.828125 -8.765625q1.5625 -6.84375 4.203125 -12.84375q1.921875 -4.546875 6.125 -11.75q4.203125 -7.203125 7.796875 -11.046875q6.0 -6.953125 9.953125 -10.3125q3.96875 -3.359375 9.0 -5.28125q4.09375 -1.6875 8.40625 -1.6875q5.765625 0 10.078125 3.359375q13.6875 3.84375 16.5625 14.890625q1.4375 5.03125 1.4375 11.28125q0 13.4375 -8.390625 29.515625q-4.5625 9.109375 -9.015625 15.0q-4.4375 5.875 -10.671875 11.15625q-4.3125 3.59375 -11.40625 6.59375q-7.078125 3.0 -13.078125 4.203125zm20.890625 -36.234375q3.109375 -4.5625 5.03125 -8.640625q1.921875 -4.078125 3.359375 -11.046875q0.96875 -4.3125 0.96875 -8.640625q0 -7.671875 -2.171875 -8.390625q-1.671875 -0.71875 -3.359375 -0.71875q-5.03125 0 -10.546875 6.46875q-5.53125 6.0 -8.171875 11.765625q-2.640625 5.765625 -6.0 18.484375q-0.953125 3.84375 -0.953125 7.671875q0 3.84375 1.1875 6.125q1.203125 2.28125 3.609375 2.28125q6.71875 0 17.046875 -15.359375zm152.16132 26.640625q-0.484375 0.234375 -2.40625 0.234375q-3.59375 0 -6.96875 -1.921875q-3.359375 -1.921875 -4.3125 -5.75q-0.234375 -0.71875 -2.046875 -4.5625q-1.796875 -3.84375 -1.796875 -8.875q0 -2.171875 0.25 -3.375l1.1875 -7.4375q0.484375 -4.5625 0.96875 -5.515625l0 -2.15625q0 -4.078125 -0.71875 -4.078125q-1.921875 0 -9.968811 8.875q-8.03125 8.875 -13.796875 17.515625q-1.671875 2.171875 -3.71875 6.375q-2.046875 4.1875 -2.515625 4.421875q-0.96875 0.96875 -2.890625 0.96875q-2.15625 0 -4.796875 -1.4375q-2.640625 -1.4375 -3.84375 -3.609375q-0.46875 -0.953125 -1.921875 -1.796875q-1.4375 -0.84375 -1.4375 -3.234375q0 -4.078125 3.125 -13.4375q2.640625 -7.921875 4.4375 -13.6875q1.796875 -5.765625 2.28125 -7.671875q0 -1.6875 -12.0 8.640625q-13.203125 15.359375 -23.515625 29.265625q-5.046875 6.96875 -7.921875 9.96875q-2.875 3.0 -5.046875 3.0q-1.671875 0 -3.59375 -2.15625q-0.953125 -0.96875 -3.234375 -2.40625q-2.28125 -1.4375 -2.28125 -2.40625q0 -1.90625 -1.203125 -1.90625q-1.4375 -1.453125 4.921875 -15.71875q6.359375 -14.28125 11.390625 -21.96875q0.96875 -0.71875 1.4375 -2.03125q0.484375 -1.328125 0.015625 -1.328125q0.46875 -0.71875 1.421875 -2.390625q0.96875 -1.6875 1.9375 -2.890625q4.078125 -7.921875 3.359375 -12.71875q-0.96875 -0.953125 -2.046875 -0.71875q-1.078125 0.234375 -1.3125 0.484375q-0.484375 0.234375 -2.53125 0.84375q-2.03125 0.59375 -3.46875 1.546875q-5.765625 3.84375 -7.921875 3.84375q-2.640625 0 -5.046875 -5.765625q-0.71875 -2.15625 -0.71875 -4.078125q0 -3.109375 1.921875 -4.796875q1.921875 -1.671875 5.03125 -3.59375q3.125 -1.921875 3.609375 -2.40625q2.640625 -1.4375 6.84375 -3.234375q4.203125 -1.796875 6.359375 -2.53125q2.875 -0.953125 5.75 -0.953125q7.921875 0 11.28125 7.6875q3.359375 4.078125 3.359375 8.625q0 4.09375 -3.359375 11.28125l-2.390625 3.609375q-0.71875 1.4375 -0.71875 1.921875q0 0.46875 0.234375 0.46875q0.953125 0 2.15625 -1.671875q1.203125 -1.203125 3.125 -3.0q1.921875 -1.796875 2.640625 -1.796875q0.234375 0 0.71875 -0.359375q0.484375 -0.359375 0.484375 -1.8125l2.390625 -2.15625q0.71875 0 2.640625 -1.3125q1.921875 -1.328125 5.28125 -3.96875q2.640625 -1.921875 4.796875 -1.921875q0.71875 -0.234375 2.171875 -0.234375q4.546875 0 7.421875 4.921875q2.890625 4.921875 2.890625 12.59375l-5.03125 12.96875l8.640625 -10.5625q2.15625 -2.640625 5.75 -5.765625q0.484375 -1.4375 1.3125 -1.796875q0.84375 -0.359375 1.09375 -0.359375q0.234375 0 0.59375 -0.234375q0.359375 -0.25 0.359375 -0.71875q0.96875 -0.71875 2.515625 -1.796875q1.562561 -1.09375 2.046936 -1.8125q2.15625 -0.953125 5.765625 -0.953125q3.828125 0 7.1875 1.5625q3.375 1.546875 5.046875 4.90625q0.71875 1.203125 2.03125 3.25q1.328125 2.03125 1.921875 3.84375q0.609375 1.796875 0.609375 4.4375l-0.96875 5.28125q0 -0.25 -1.1875 8.15625q-1.203125 2.640625 -1.203125 8.15625q0 3.359375 0.359375 4.328125q0.359375 0.953125 1.796875 0.953125q3.125 -0.71875 5.40625 -2.15625q2.28125 -1.4375 5.390625 -4.328125q1.921875 -1.921875 3.84375 -1.921875q2.15625 0 3.71875 1.8125q1.5625 1.796875 2.28125 4.1875q0.71875 1.453125 -2.53125 7.6875q-3.234375 6.234375 -4.90625 6.234375q-0.484375 0 -2.640625 1.8125q-2.15625 1.796875 -3.59375 2.75q-4.09375 4.5625 -6.734375 4.5625q-0.953125 0 -2.515625 0.609375q-1.5625 0.59375 -2.75 0.59375zm53.505005 5.75q-2.875 0 -4.5625 -0.953125q-1.671875 -0.953125 -4.796875 -3.59375q-4.796875 -5.046875 -7.4375 -10.4375q-2.640625 -5.40625 -1.921875 -9.484375q0.71875 -1.6875 0.59375 -3.359375q-0.109375 -1.6875 -0.109375 -2.171875q-0.953125 -0.953125 -0.953125 -1.3125q0 -0.359375 0.46875 -0.71875q0.484375 -0.359375 0.71875 -0.84375q1.453125 0 0.96875 -2.640625q-0.484375 -1.921875 1.671875 -8.390625q2.171875 -6.484375 5.53125 -12.0q2.640625 -4.328125 7.796875 -10.796875q5.15625 -6.484375 9.234375 -9.84375q12.0 -10.328125 21.609375 -12.484375q4.796875 -1.203125 9.359375 -1.203125q6.953125 0 10.796875 3.84375q5.28125 2.15625 7.671875 6.234375q2.40625 4.078125 3.125 10.796875q0.234375 1.453125 0.234375 4.8125q0 17.75 -13.4375 36.953125q-5.515625 7.921875 -11.046875 12.71875q-5.515625 4.796875 -13.421875 9.609375q-4.328125 2.875 -9.125 3.84375q-4.796875 0.953125 -12.96875 1.421875zm24.484375 -29.265625q4.5625 -4.09375 6.59375 -8.28125q2.046875 -4.203125 5.890625 -14.765625q1.4375 -2.15625 1.4375 -8.640625q0 -5.765625 -1.671875 -6.484375q-1.203125 -0.953125 -2.890625 -0.953125q-2.15625 0 -6.953125 3.359375q-8.40625 7.203125 -14.046875 15.0q-5.640625 7.796875 -7.796875 17.875q-0.234375 0.96875 -0.234375 2.890625q0 8.15625 5.75 8.15625q5.53125 0 13.921875 -8.15625zm68.39563 45.359375q-9.359375 -0.25 -13.3125 -4.453125q-3.953125 -4.1875 -3.953125 -11.875q0 -1.921875 0.46875 -6.234375q0.96875 -3.359375 1.4375 -6.71875q1.203125 -5.28125 2.40625 -6.25q0.234375 -0.234375 0.46875 -0.953125q0.25 -0.71875 -0.46875 -1.203125q0 -3.125 2.15625 -8.640625q0.484375 -1.671875 1.203125 -3.34375q0.71875 -1.6875 0.96875 -2.171875q-0.484375 -0.484375 -0.484375 -1.4375q0 -1.203125 1.3125 -2.40625q1.328125 -1.203125 1.921875 -2.15625q0.609375 -0.96875 -0.125 -1.921875q-0.46875 -1.203125 4.5625 -10.796875q3.125 -6.25 3.359375 -6.96875q-0.234375 -0.71875 3.484375 -8.875q3.71875 -8.15625 5.875 -12.234375q2.171875 -1.203125 -1.671875 -1.6875q-3.84375 -0.484375 -9.359375 -0.234375q-7.921875 -0.25 -12.25 -0.84375q-4.3125 -0.59375 -6.953125 -2.046875q-1.671875 -1.671875 -1.671875 -4.3125q0 -3.125 2.265625 -5.765625q2.28125 -2.640625 5.640625 -2.875q6.25 -0.234375 19.203125 -1.6875l12.25 -0.953125l0.71875 -4.078125q1.1875 -2.15625 2.265625 -3.71875q1.09375 -1.5625 1.453125 -2.765625q0.359375 -1.203125 0.59375 -3.59375q0.71875 -0.96875 2.515625 -4.796875q1.8125 -3.84375 2.28125 -7.453125q2.640625 -4.546875 4.921875 -8.75q2.28125 -4.203125 2.765625 -4.921875q4.3125 -6.484375 9.59375 -6.484375q2.890625 0 6.0 1.921875q3.125 2.15625 4.796875 3.84375q1.6875 1.671875 1.6875 4.5625q0 2.15625 -2.15625 6.234375q-0.96875 1.921875 -2.890625 7.6875q-1.671875 2.15625 -3.59375 5.875q-1.921875 3.71875 -2.640625 7.078125q-0.484375 1.203125 -1.453125 3.25q-0.953125 2.03125 -1.3125 2.390625q-0.359375 0.359375 -1.078125 0.359375q0.25 1.4375 0.96875 1.921875q0.71875 0.484375 2.390625 0.484375q1.203125 0 3.0 -0.234375q1.8125 -0.25 4.4375 -0.25q2.40625 -0.234375 4.203125 -0.71875q1.796875 -0.484375 3.484375 -0.484375q0.953125 0 2.875 0.71875q1.203125 1.4375 1.203125 5.515625q0 3.125 -0.96875 5.890625q-0.953125 2.75 -2.390625 3.46875q-1.203125 0.25 -5.28125 1.453125q-4.078125 1.1875 -8.875 1.4375l-12.71875 1.203125l-4.078125 8.15625q-1.6875 2.875 -2.890625 5.515625q-1.1875 2.640625 -1.671875 3.125q0 1.203125 -1.921875 4.796875q-1.921875 3.59375 -2.875 5.765625q-1.203125 3.359375 -2.890625 6.59375q-1.671875 3.234375 -2.15625 4.203125q-0.71875 0 -0.84375 0.359375q-0.109375 0.359375 -0.109375 1.078125l0.46875 1.921875q0 1.203125 -1.1875 2.390625q-0.96875 0.484375 -1.8125 1.6875q-0.828125 1.203125 -1.078125 1.6875q0.484375 0.46875 0.484375 1.1875q0 1.6875 -1.6875 4.328125q0 4.078125 -3.359375 12.234375q0.25 4.328125 0.484375 5.53125q0.234375 1.1875 1.203125 0.953125l1.203125 0l5.28125 -0.234375q1.671875 -0.734375 0.828125 3.59375q-0.828125 4.3125 -4.1875 13.203125q-3.609375 5.515625 -7.578125 9.71875q-3.953125 4.203125 -5.15625 4.203125zm96.25244 -114.25q-0.71875 0.71875 -1.4375 0.71875q-0.96875 0 -3.125 -1.4375q-2.40625 -0.234375 -6.375 -4.078125q-3.953125 -3.84375 -3.953125 -5.046875q-0.234375 -2.875 0.484375 -8.265625q0.71875 -5.40625 2.75 -9.71875q2.046875 -4.328125 5.40625 -4.5625q1.6875 0.234375 4.5625 1.078125q2.875 0.84375 6.484375 2.28125q4.5625 9.109375 4.5625 15.59375q0 9.59375 -9.359375 13.4375zm-22.078125 99.609375q-5.765625 0 -9.96875 -6.0q-4.203125 -6.0 -5.15625 -14.890625q0.953125 -8.875 1.4375 -12.953125q2.640625 -11.765625 6.59375 -27.71875q3.96875 -15.96875 4.6875 -17.640625q1.203125 -2.15625 3.84375 -2.15625q2.640625 0 5.875 2.046875q3.234375 2.03125 5.40625 5.625q1.921875 2.640625 1.921875 6.0q0 5.046875 -4.8125 21.125q-3.359375 12.0 -4.328125 17.046875q-0.953125 5.03125 -0.703125 10.796875q-0.96875 10.796875 -1.9375 14.875q-0.953125 4.078125 -2.859375 3.84375zm48.94629 -12.484375q-2.640625 -1.921875 -7.203125 -16.3125q-4.546875 -14.40625 -6.46875 -26.890625q-0.96875 -5.03125 -3.84375 -13.671875q-0.484375 -1.921875 -0.484375 -3.125q0 -3.59375 1.921875 -7.3125q1.921875 -3.734375 4.328125 -5.171875q0.953125 -0.71875 4.1875 -1.078125q3.25 -0.359375 4.453125 -0.125q5.28125 1.921875 9.59375 29.28125q0.96875 7.4375 1.5625 10.8125q0.59375 3.359375 0.59375 4.546875q0.484375 1.453125 0.96875 3.375q0.484375 1.90625 0.953125 2.625q0.484375 0.71875 1.6875 -0.46875q2.640625 -2.640625 7.921875 -9.609375q2.640625 -3.359375 7.921875 -11.03125l6.953125 -9.359375q2.875 -3.84375 7.671875 -8.40625q4.8125 -4.5625 7.453125 -5.28125q3.359375 -0.484375 5.390625 1.328125q2.046875 1.796875 2.046875 4.90625q0 4.5625 -3.84375 9.84375q-1.4375 1.921875 -3.0 5.171875q-1.5625 3.234375 -2.03125 3.71875q-2.640625 5.265625 -9.734375 14.875q-7.078125 9.59375 -9.46875 12.0q-0.484375 0.484375 -3.96875 3.359375q-3.46875 2.875 -6.359375 6.953125q-7.4375 7.203125 -13.921875 7.203125q-3.109375 0 -5.28125 -2.15625zm76.56494 10.5625q-7.921875 -3.125 -11.640625 -9.71875q-3.71875 -6.609375 -3.71875 -17.171875q0 -2.390625 0.484375 -8.640625q0.234375 -1.90625 0.234375 -4.546875q0 -4.078125 -0.96875 -6.125q-0.953125 -2.046875 -3.34375 -4.203125q-0.71875 -0.71875 -3.359375 -3.109375q-2.640625 -2.40625 -2.40625 -3.609375l0 -0.71875q0 -1.6875 0.84375 -3.71875q0.84375 -2.046875 1.5625 -2.515625q0.71875 -0.25 2.875 -1.4375q2.15625 -1.203125 3.359375 -0.734375q0.953125 0 3.0 1.203125q2.046875 1.203125 2.046875 2.15625q1.4375 2.890625 7.4375 -9.359375q3.359375 -5.03125 9.109375 -9.953125q5.765625 -4.921875 10.5625 -7.5625q1.6875 -0.71875 7.5625 -2.03125q5.875 -1.328125 9.234375 -1.328125q3.84375 0 9.0 3.125q5.171875 3.109375 8.53125 6.71875q5.03125 3.59375 5.03125 13.671875q0 6.0 -1.921875 10.328125q-0.953125 3.59375 -9.484375 10.921875q-8.515625 7.3125 -13.796875 9.46875q-5.265625 1.203125 -11.75 1.203125q-6.484375 0 -8.875 -1.203125q-1.6875 -0.953125 -2.765625 0.84375q-1.078125 1.796875 -1.796875 8.046875l-0.25 2.390625q0 2.640625 1.203125 5.046875q1.6875 2.875 3.125 4.078125q1.4375 1.203125 4.3125 1.203125l2.171875 -0.25q2.625 -0.234375 5.625 -2.625q3.0 -2.40625 7.09375 -6.484375q4.3125 -4.078125 5.03125 -4.796875q1.203125 -2.40625 6.484375 -2.40625q2.15625 0 5.515625 0.71875q2.40625 1.921875 2.40625 4.796875q0 4.078125 -3.84375 11.046875q-1.203125 2.390625 -7.328125 8.15625q-6.109375 5.765625 -9.71875 7.921875q-6.46875 3.59375 -14.390625 3.59375q-6.0 0 -12.484375 -2.390625zm17.765625 -54.0q5.75 -1.4375 8.984375 -3.484375q3.25 -2.046875 7.578125 -8.046875q1.90625 -5.75 0.71875 -6.953125q-1.4375 -1.4375 -3.359375 -1.4375q-2.40625 0 -5.765625 2.640625q-2.40625 0.71875 -6.609375 4.4375q-4.1875 3.71875 -7.078125 7.203125q-2.875 3.484375 -1.671875 4.203125q-0.484375 0.71875 2.390625 1.078125q2.890625 0.359375 4.8125 0.359375zm68.878784 57.59375q-7.4375 0 -13.921875 -3.359375q-6.484375 -3.359375 -10.328125 -8.515625q-3.828125 -5.15625 -3.828125 -10.203125q0 -4.078125 3.359375 -4.078125q2.15625 0.484375 5.03125 2.640625q3.609375 2.15625 6.125 3.359375q2.515625 1.203125 5.15625 1.203125q4.078125 0 7.078125 -1.3125q3.0 -1.328125 3.484375 -3.96875q0 -0.96875 -0.96875 -4.203125q-0.953125 -3.234375 -2.390625 -5.875q-5.28125 -7.921875 -7.078125 -15.484375q-1.796875 -7.5625 -2.28125 -17.640625q0 -5.515625 8.03125 -13.1875q8.046875 -7.6875 18.71875 -13.6875q10.6875 -6.0 17.40625 -6.71875q13.203125 0 15.84375 2.15625q3.359375 2.640625 6.234375 8.640625q2.890625 6.0 2.890625 10.078125q0 1.671875 -1.5625 4.203125q-1.5625 2.515625 -2.046875 3.234375l-2.15625 3.359375l-1.671875 3.609375q-0.484375 1.1875 -1.5625 3.59375q-1.078125 2.40625 -1.921875 2.890625q-0.84375 0.46875 -2.515625 0.234375q-4.09375 0 -7.453125 -3.59375q-3.359375 -3.609375 -3.359375 -7.9375q0 -3.109375 2.15625 -6.234375q2.171875 -3.125 2.171875 -3.59375q0 -0.96875 -2.15625 -0.96875q-3.125 0 -9.609375 3.125q-6.484375 3.109375 -11.53125 8.28125q-5.03125 5.15625 -5.03125 11.390625q0 3.359375 1.3125 7.8125q1.328125 4.4375 3.015625 7.3125q1.921875 1.921875 5.640625 11.40625q3.71875 9.46875 3.71875 15.0q0 8.390625 -6.359375 12.71875q-6.359375 4.3125 -17.640625 4.3125z" fill-rule="nonzero"/></g></g></svg>