<?xml version="1.0" encoding="iso-8859-1"?>
<!-- Generator: Adobe Illustrator 19.0.0, SVG Export Plug-In . SVG Version: 6.00 Build 0)  -->
<svg version="1.1" id="Capa_1" xmlns="http://www.w3.org/2000/svg" xmlns:xlink="http://www.w3.org/1999/xlink" x="0px" y="0px"
	 viewBox="0 0 512 512" style="enable-background:new 0 0 512 512;" xml:space="preserve">
<g>
	<g>
		<path d="M420.524,152.419C414.075,67.292,342.749,0,256,0S97.925,67.292,91.476,152.419C73.771,158.475,61,175.269,61,195
			c0,19.556,12.539,36.239,30,42.43V467c0,24.813,20.187,45,45,45h240c24.813,0,45-20.187,45-45c0-9.854,0-215.62,0-229.57
			c17.461-6.191,30-22.873,30-42.43C451,175.269,438.229,158.475,420.524,152.419z M256,30c69.369,0,126.686,52.595,134.172,120
			H121.828C129.314,82.595,186.631,30,256,30z M91,195c0-8.271,6.729-15,15-15h105v30H106C97.729,210,91,203.271,91,195z M376,482
			H136c-8.271,0-15-6.729-15-15V240h92.58c6.192,17.459,22.865,30,42.42,30c5.257,0,10.307-0.906,15-2.57V346
			c0,24.813,20.187,45,45,45s45-20.187,45-45v-31c0-8.271,6.729-15,15-15c0.01,0,0.019,0,0.028,0c0.007,0,0.016,0,0.021,0
			c8.248,0.027,14.95,6.746,14.95,15C391,321.525,391,459.807,391,467C391,475.271,384.271,482,376,482z M406,210
			c-8.284,0-15,6.716-15,15v47.564c-4.75-1.68-9.776-2.555-14.925-2.564c-0.013,0-0.021,0-0.033,0c-0.016,0-0.028,0-0.042,0
			c-24.813,0-45,20.187-45,45v31c0,8.271-6.729,15-15,15s-15-6.729-15-15V225c0-8.284-6.716-15-15-15s-15,6.716-15,15
			c0,8.271-6.729,15-15,15s-15-6.729-15-15v-45h165c8.271,0,15,6.729,15,15S414.271,210,406,210z"/>
	</g>
</g>
<g>
</g>
<g>
</g>
<g>
</g>
<g>
</g>
<g>
</g>
<g>
</g>
<g>
</g>
<g>
</g>
<g>
</g>
<g>
</g>
<g>
</g>
<g>
</g>
<g>
</g>
<g>
</g>
<g>
</g>
</svg>
